<?xml version="1.0" encoding="UTF-8" standalone="no"?><!DOCTYPE svg PUBLIC "-//W3C//DTD SVG 1.1//EN" "http://www.w3.org/Graphics/SVG/1.1/DTD/svg11.dtd"><svg width="100%" height="100%" viewBox="0 0 118 433" version="1.1" xmlns="http://www.w3.org/2000/svg" xmlns:xlink="http://www.w3.org/1999/xlink" xml:space="preserve" xmlns:serif="http://www.serif.com/" style="fill-rule:evenodd;clip-rule:evenodd;stroke-linecap:round;stroke-linejoin:round;stroke-miterlimit:1.5;"><g id="Knife"><path id="Blade" d="M16.875,181.625c0.001,-0.008 51.627,-1.017 51.627,-1.017c-0,0 -4.133,23.778 41.675,22.586c0.096,-0.002 0.068,158.747 -62.839,222.025c-1.606,1.616 -50.121,-36.018 -30.463,-243.594Z" style="fill:#a9b9c8;"/><clipPath id="_clip1"><path id="Blade1" serif:id="Blade" d="M16.875,181.625c0.001,-0.008 51.627,-1.017 51.627,-1.017c-0,0 -4.133,23.778 41.675,22.586c0.096,-0.002 0.068,158.747 -62.839,222.025c-1.606,1.616 -50.121,-36.018 -30.463,-243.594Z"/></clipPath><g clip-path="url(#_clip1)"><path d="M30.093,201.47c0,-0.007 28.178,-2.605 28.178,-2.605c-0,0 6.184,12.712 40.176,14.82c0.064,0.004 2.987,131.157 -47.597,188.026c-1.204,1.355 -29.383,-13.933 -20.757,-200.241Z" style="fill:#fff;"/><path d="M30.546,199.404c0,-0.006 19.024,-1.638 19.024,-1.638c-0,0 17.127,22.294 40.063,23.937c0.054,0.004 -3.708,125.681 -40.988,180.167c-0.952,1.391 -29.588,-15.174 -18.099,-202.466Z" style="fill:url(#_Linear2);"/></g><path id="Blade2" serif:id="Blade" d="M16.875,181.625c0.001,-0.008 51.627,-1.017 51.627,-1.017c-0,0 -4.133,23.778 41.675,22.586c0.096,-0.002 0.068,158.747 -62.839,222.025c-1.606,1.616 -50.121,-36.018 -30.463,-243.594Z" style="fill:none;stroke:#000;stroke-width:13.7px;"/><path id="Handle" d="M18.277,176.706c0,0 -40.164,-176.72 30.105,-169.649c70.269,7.071 1.753,149.079 19.618,172.431c0.153,0.199 -49.723,-2.782 -49.723,-2.782Z" style="fill:#1b415b;stroke:#000;stroke-width:13.7px;"/></g><g id="Eye"><path id="Background" d="M44.361,54.557c11.26,1.407 19.419,10.411 18.208,20.094c-1.21,9.682 -11.334,16.4 -22.594,14.993c-11.259,-1.407 -19.418,-10.411 -18.208,-20.093c1.21,-9.683 11.334,-16.401 22.594,-14.994Z"/><ellipse id="Highlight" cx="45.502" cy="67.851" rx="6.246" ry="4.361" style="fill:#ff110e;"/><path id="Brow" d="M34.383,28.926c0,0 -0.673,13.739 24.985,21.921" style="fill:none;stroke:#000;stroke-width:13.7px;"/></g><defs><linearGradient id="_Linear2" x1="0" y1="0" x2="1" y2="0" gradientUnits="userSpaceOnUse" gradientTransform="matrix(54.7473,1.50311,-1.79804,65.4895,21.701,297.478)"><stop offset="0" style="stop-color:#748ea0;stop-opacity:1"/><stop offset="1" style="stop-color:#b8c9d4;stop-opacity:1"/></linearGradient></defs></svg>